<svg width="29" height="17" viewBox="0 0 29 17" fill="none" xmlns="http://www.w3.org/2000/svg">
<path d="M0.736474 0.753199C0.51046 0.977366 0.331068 1.24407 0.208645 1.53792C0.0862231 1.83176 0.0231934 2.14694 0.0231934 2.46527C0.0231934 2.7836 0.0862231 3.09879 0.208645 3.39263C0.331068 3.68648 0.51046 3.95318 0.736474 4.17735L12.7934 16.2342C13.0175 16.4602 13.2842 16.6396 13.5781 16.7621C13.8719 16.8845 14.1871 16.9475 14.5054 16.9475C14.8238 16.9475 15.1389 16.8845 15.4328 16.7621C15.7266 16.6396 15.9933 16.4602 16.2175 16.2342L28.2744 4.17735C28.5004 3.95318 28.6798 3.68648 28.8022 3.39263C28.9246 3.09879 28.9877 2.7836 28.9877 2.46527C28.9877 2.14694 28.9246 1.83176 28.8022 1.53792C28.6798 1.24407 28.5004 0.977366 28.2744 0.753199C28.0502 0.527184 27.7835 0.347792 27.4897 0.225368C27.1958 0.102947 26.8806 0.039917 26.5623 0.039917C26.244 0.039917 25.9288 0.102947 25.6349 0.225368C25.3411 0.347792 25.0744 0.527184 24.8502 0.753199L14.5054 11.1221L4.16063 0.753199C3.93646 0.527184 3.66976 0.347792 3.37591 0.225368C3.08206 0.102947 2.76688 0.039917 2.44855 0.039917C2.13022 0.039917 1.81504 0.102947 1.52119 0.225368C1.22734 0.347792 0.960643 0.527184 0.736474 0.753199Z" fill="white"/>
</svg>
